<?xml version="1.0" encoding="UTF-8" standalone="no"?>
<!-- Created with Inkscape (http://www.inkscape.org/) -->

<svg
   version="1.1"
   id="svg2"
   width="553"
   height="599"
   viewBox="0 0 553 599"
   sodipodi:docname="maple-money-new.svg"
   inkscape:version="1.1.2 (0a00cf5339, 2022-02-04)"
   xmlns:inkscape="http://www.inkscape.org/namespaces/inkscape"
   xmlns:sodipodi="http://sodipodi.sourceforge.net/DTD/sodipodi-0.dtd"
   xmlns:xlink="http://www.w3.org/1999/xlink"
   xmlns="http://www.w3.org/2000/svg"
   xmlns:svg="http://www.w3.org/2000/svg">
  <defs
     id="defs6">
    <linearGradient
       inkscape:collect="always"
       id="linearGradient9721">
      <stop
         style="stop-color:#05a090;stop-opacity:1"
         offset="0"
         id="stop9717" />
      <stop
         style="stop-color:#c3540b;stop-opacity:1"
         offset="1"
         id="stop9719" />
    </linearGradient>
    <linearGradient
       inkscape:collect="always"
       xlink:href="#linearGradient9721"
       id="linearGradient9723"
       x1="83.260994"
       y1="524.93024"
       x2="477.29831"
       y2="244.82816"
       gradientUnits="userSpaceOnUse" />
  </defs>
  <sodipodi:namedview
     id="namedview4"
     pagecolor="#ffffff"
     bordercolor="#666666"
     borderopacity="1.0"
     inkscape:pageshadow="2"
     inkscape:pageopacity="0.0"
     inkscape:pagecheckerboard="0"
     showgrid="false"
     inkscape:zoom="1.048414"
     inkscape:cx="349.57564"
     inkscape:cy="372.94427"
     inkscape:window-width="1418"
     inkscape:window-height="863"
     inkscape:window-x="619"
     inkscape:window-y="143"
     inkscape:window-maximized="0"
     inkscape:current-layer="g8" />
  <g
     inkscape:groupmode="layer"
     inkscape:label="Image"
     id="g8">
    <path
       style="fill:url(#linearGradient9723);fill-opacity:1"
       d="m 263.49117,590.75 c 0.32752,-4.5375 1.92955,-34.08263 3.56007,-65.65584 2.85065,-55.19996 2.89702,-57.54345 1.20666,-60.98681 -2.05228,-4.18062 -7.43898,-8.10171 -11.15578,-8.12052 -1.43117,-0.007 -31.28463,5.02275 -66.34103,11.17776 -35.05639,6.15501 -63.96395,10.96589 -64.239,10.69083 -0.27506,-0.27505 3.31995,-10.97095 7.9889,-23.76865 8.62622,-23.64463 9.60706,-28.04551 7.06086,-31.68073 -0.78549,-1.12144 -32.73549,-27.3909 -71.000003,-58.37659 C 32.307331,333.04377 1,307.40078 1,307.04504 c 0,-0.35575 7.242051,-3.98139 16.093447,-8.05699 16.558309,-7.62423 19.926377,-10.14374 19.88203,-14.87291 C 36.961989,282.67681 30.716172,262.375 23.095884,239 15.475596,215.625 9.619913,196.35557 10.083255,196.17905 c 0.463341,-0.17652 19.139184,3.56778 41.501873,8.32067 43.773216,9.30341 44.405865,9.35849 47.659521,4.14915 0.73818,-1.18188 4.697621,-10.12974 8.798751,-19.88413 4.10113,-9.7544 7.72295,-17.7419 8.04849,-17.75 0.32554,-0.008 15.03709,15.46881 32.69234,34.39314 34.34382,36.8125 34.96212,37.32601 41.11314,34.14519 3.68503,-1.9056 5.10263,-4.33453 5.10263,-8.74289 0,-1.82672 -6.71497,-37.96634 -14.92216,-80.31026 -8.20718,-42.34391 -14.83718,-77.073915 -14.73332,-77.177773 0.10386,-0.103858 11.43133,6.3048 25.17216,14.241464 26.34627,15.217529 28.98646,16.203279 33.59846,12.544379 1.39316,-1.105255 12.77459,-22.28408 27.37028,-50.931247 C 265.2274,22.205164 276.52968,0.21906959 276.60159,0.31875458 276.6735,0.41843956 287.83848,22.325 301.41265,49 c 13.57417,26.675 25.80949,49.5125 27.18959,50.75 4.68995,4.20533 7.10187,3.34081 33.94378,-12.166743 13.7246,-7.929208 25.03133,-14.339237 25.12606,-14.24451 0.0947,0.09473 -6.54274,34.817263 -14.74992,77.161173 C 364.71497,192.84384 358,228.98346 358,230.81018 c 0,4.40836 1.4176,6.83729 5.10263,8.74289 6.15102,3.18082 6.76932,2.66731 41.11314,-34.14519 17.65525,-18.92433 32.3668,-34.40125 32.69234,-34.39314 0.32554,0.008 3.94736,7.9956 8.04849,17.75 4.10113,9.75439 8.06057,18.70225 8.79875,19.88413 3.23806,5.18437 4.06605,5.11783 45.37466,-3.64626 21.1035,-4.47734 39.82231,-8.3918 41.59736,-8.69879 l 3.22738,-0.55816 -1.9239,5.87717 C 524.25816,255.91537 516,282.10764 516,284.18446 c 0,4.6312 3.39899,7.15041 19.87892,14.73358 8.86659,4.07992 16.12108,7.74439 16.12108,8.14326 0,0.39887 -31.49623,26.22079 -69.99163,57.38206 -38.4954,31.16126 -70.4454,57.50471 -71,58.541 -1.97174,3.68422 -0.90656,8.11293 7.48064,31.10241 4.66895,12.7977 8.2732,23.48435 8.00944,23.74811 -0.26375,0.26376 -29.17131,-4.54525 -64.239,-10.68669 -35.0677,-6.14144 -64.9304,-11.16219 -66.36157,-11.15722 -3.71386,0.0129 -9.10225,3.93321 -11.15578,8.11638 -1.69036,3.44336 -1.64399,5.78685 1.20666,60.98681 1.63052,31.57321 3.23255,61.11834 3.56007,65.65584 l 0.5955,8.25 H 276.5 262.89567 Z"
       id="path9587" />
  </g>
</svg>
